<svg width="24.000000" height="24.000000" viewBox="0 0 24 24" fill="none" xmlns="http://www.w3.org/2000/svg" xmlns:xlink="http://www.w3.org/1999/xlink">
	<desc>
			Created with Pixso.
	</desc>
	<defs/>
	<g opacity="0.000000">
		<path id="Vector" d="M24 0L24 24L0 24L0 0L24 0Z" fill="#121212" fill-opacity="1.000000" fill-rule="evenodd"/>
	</g>
	<path id="Vector" d="M19 11L7.14001 11L10.77 6.64001C10.9397 6.43579 11.0214 6.17252 10.997 5.90808C10.9726 5.64365 10.8442 5.39975 10.64 5.23001C10.4358 5.06027 10.1725 4.97861 9.90808 5.00299C9.64365 5.02737 9.39975 5.15579 9.23001 5.36002L4.23001 11.36C4.19635 11.4077 4.16629 11.4579 4.14001 11.51C4.14001 11.56 4.14001 11.59 4.07001 11.64C4.02469 11.7547 4.00095 11.8767 4 12C4.00095 12.1233 4.02469 12.2453 4.07001 12.36C4.07001 12.41 4.07001 12.44 4.14001 12.49C4.16629 12.5421 4.19635 12.5923 4.23001 12.64L9.23001 18.64C9.32404 18.7529 9.44177 18.8437 9.57486 18.9059C9.70792 18.9681 9.85309 19.0002 10 19C10.2336 19.0005 10.4601 18.9191 10.64 18.77C10.7413 18.6861 10.825 18.5829 10.8863 18.4666C10.9477 18.3503 10.9855 18.223 10.9975 18.092C11.0096 17.961 10.9957 17.8289 10.9567 17.7033C10.9176 17.5777 10.8542 17.4611 10.77 17.36L7.14001 13L19 13C19.2652 13 19.5196 12.8947 19.7071 12.7071C19.8947 12.5196 20 12.2652 20 12C20 11.7348 19.8947 11.4804 19.7071 11.2929C19.5196 11.1053 19.2652 11 19 11Z" fill="#121212" fill-opacity="1.000000" fill-rule="nonzero"/>
</svg>
